<svg width="316" height="33" viewBox="0 0 316 33" fill="none" xmlns="http://www.w3.org/2000/svg">
<path d="M20.3906 4.25C22.5781 4.375 24.375 5.21875 25.7812 6.78125C27.1875 8.3125 28.2031 10.0625 28.8281 12.0312C29.4531 14 29.7656 16.0156 29.7656 18.0781C29.7656 20.1406 29.4531 22.1562 28.8281 24.125C28.2344 26.0938 27.2188 27.8594 25.7812 29.4219C24.375 30.9531 22.5781 31.7812 20.3906 31.9062H3.14062C2.29688 31.875 1.57812 31.5781 0.984375 31.0156C0.421875 30.4219 0.125 29.7031 0.09375 28.8594V17.2344C0.125 16.3594 0.453125 15.6406 1.07812 15.0781C1.70312 14.4844 2.45312 14.1875 3.32812 14.1875C4.17188 14.2188 4.89062 14.5312 5.48438 15.125C6.07812 15.6875 6.39062 16.3906 6.42188 17.2344V24.3594C6.42188 25.2031 6.85938 25.625 7.73438 25.625H18.7969C19.9844 25.5625 20.9688 25.1094 21.75 24.2656C22.5312 23.4219 23.0938 22.4688 23.4375 21.4062C23.8125 20.3125 24 19.2031 24 18.0781C24 16.9531 23.8125 15.8594 23.4375 14.7969C23.0938 13.7031 22.5312 12.7344 21.75 11.8906C20.9688 11.0469 19.9844 10.5938 18.7969 10.5312H3.14062C1.26562 10.375 0.25 9.35938 0.09375 7.48438C0.09375 6.60938 0.375 5.85938 0.9375 5.23438C1.53125 4.60938 2.26562 4.28125 3.14062 4.25H20.3906ZM35.8594 16.5312C36.4531 15.0312 37.4531 13.6875 38.8594 12.5C40.2969 11.2812 42.1094 10.6562 44.2969 10.625H61.9219C62.7969 10.625 63.5312 10.9375 64.125 11.5625C64.75 12.1562 65.0625 12.8906 65.0625 13.7656C65.0625 14.6406 64.75 15.3906 64.125 16.0156C63.5312 16.6094 62.7969 16.9062 61.9219 16.9062H44.1094C43.5156 16.9062 43 17.1562 42.5625 17.6562C42.125 18.125 41.7812 18.6875 41.5312 19.3438C41.3125 20 41.2031 20.625 41.2031 21.2188V29.4219C41.0156 31.2969 39.9844 32.3125 38.1094 32.4688C37.2344 32.4688 36.4688 32.1875 35.8125 31.625C35.1875 31.0312 34.875 30.2969 34.875 29.4219V21.2656H34.9219C34.9219 19.6406 35.2344 18.0625 35.8594 16.5312ZM84.6562 32.7031C83.0312 32.7031 81.4219 32.5156 79.8281 32.1406C78.2656 31.7656 76.7656 31.2188 75.3281 30.5C73.8906 29.75 72.625 28.7656 71.5312 27.5469C70.4375 26.3281 69.8438 24.875 69.75 23.1875V21.2188V13.2031C69.75 12.3281 70.0625 11.6094 70.6875 11.0469C71.3438 10.4531 72.1094 10.1562 72.9844 10.1562C74.8594 10.3125 75.875 11.3281 76.0312 13.2031V15.2656V21.7344C76.0938 22.7031 76.4531 23.5156 77.1094 24.1719C77.7969 24.7969 78.5469 25.2969 79.3594 25.6719C80.2031 26.0469 81.0625 26.3281 81.9375 26.5156C82.8438 26.7031 83.75 26.7969 84.6562 26.7969C85.5625 26.7969 86.4531 26.7031 87.3281 26.5156C88.2344 26.3281 89.0938 26.0469 89.9062 25.6719C90.75 25.2969 91.5 24.7969 92.1562 24.1719C92.8438 23.5156 93.2188 22.7031 93.2812 21.7344V15.2656V13.2031C93.2812 12.3281 93.5938 11.6094 94.2188 11.0469C94.875 10.4531 95.6406 10.1562 96.5156 10.1562C98.3906 10.3125 99.4219 11.3281 99.6094 13.2031V21.2188V23.1875C99.5156 24.875 98.9062 26.3281 97.7812 27.5469C96.6875 28.7656 95.4219 29.75 93.9844 30.5C92.5469 31.2188 91.0312 31.7656 89.4375 32.1406C87.875 32.5156 86.2812 32.7031 84.6562 32.7031ZM108.844 3.5C109.688 3.53125 110.406 3.84375 111 4.4375C111.594 5 111.906 5.70312 111.938 6.54688V29.5156C111.75 31.3906 110.719 32.4062 108.844 32.5625C107.969 32.5625 107.203 32.2812 106.547 31.7188C105.922 31.125 105.609 30.3906 105.609 29.5156V6.54688C105.641 5.67188 105.969 4.95312 106.594 4.39062C107.219 3.79688 107.969 3.5 108.844 3.5ZM114.797 16.5781C115.703 15.1094 117.438 14.0312 120 13.3438L132.047 10.1094C132.891 9.85938 133.688 9.9375 134.438 10.3438C135.219 10.7188 135.734 11.3281 135.984 12.1719C136.266 12.9844 136.203 13.7812 135.797 14.5625C135.422 15.3125 134.812 15.8281 133.969 16.1094L121.125 19.4375C120.219 19.7812 119.781 20.375 119.812 21.2188C119.781 22.0625 120.219 22.6562 121.125 23L133.969 26.3281C134.812 26.6094 135.422 27.1406 135.797 27.9219C136.203 28.6719 136.266 29.4531 135.984 30.2656C135.734 31.1094 135.219 31.7188 134.438 32.0938C133.688 32.5 132.891 32.5781 132.047 32.3281L120 29.0938C117.406 28.375 115.656 27.2812 114.75 25.8125C113.875 24.3438 113.438 22.8125 113.438 21.2188C113.438 19.625 113.891 18.0781 114.797 16.5781ZM174.656 31.9062C171.906 31.8125 169.828 31.1719 168.422 29.9844C167.016 28.7656 166 27.4062 165.375 25.9062C164.75 24.375 164.438 22.8281 164.438 21.2656C164.438 19.6406 164.734 18.0781 165.328 16.5781C165.953 15.0469 166.969 13.6875 168.375 12.5C169.812 11.2812 171.625 10.6562 173.812 10.625H191.625C192.5 10.625 193.234 10.9219 193.828 11.5156C194.453 12.0781 194.766 12.7656 194.766 13.5781C194.766 14.4219 194.453 15.1406 193.828 15.7344C193.234 16.2969 192.5 16.5781 191.625 16.5781H174.094C173.406 16.5781 172.797 16.8125 172.266 17.2812C171.766 17.75 171.391 18.3594 171.141 19.1094C170.922 19.8594 170.812 20.5938 170.812 21.3125C170.812 22.0938 170.922 22.8594 171.141 23.6094C171.391 24.3594 171.766 24.9688 172.266 25.4375C172.797 25.875 173.406 26.1094 174.094 26.1406H191.625C192.5 26.1406 193.234 26.4219 193.828 26.9844C194.453 27.5469 194.766 28.2188 194.766 29C194.766 29.8125 194.453 30.5 193.828 31.0625C193.234 31.625 192.5 31.9062 191.625 31.9062H174.656ZM194.203 21.1719C194.203 21.7656 193.938 22.2812 193.406 22.7188C192.938 23.125 192.344 23.3281 191.625 23.3281H176.297C175.578 23.3281 174.969 23.125 174.469 22.7188C173.969 22.2812 173.719 21.7656 173.719 21.1719C173.719 20.6094 173.969 20.1094 174.469 19.6719C174.969 19.2656 175.578 19.0625 176.297 19.0625H191.625C192.344 19.0625 192.953 19.2812 193.453 19.7188C193.953 20.125 194.203 20.6094 194.203 21.1719ZM206.484 6.54688V24.4062C206.484 25.1875 206.891 25.5938 207.703 25.625H224.109C224.703 25.5938 225.219 25.3438 225.656 24.875C226.094 24.375 226.406 23.8125 226.594 23.1875C226.812 22.5312 226.922 21.875 226.922 21.2188C226.922 20.5938 226.812 19.9688 226.594 19.3438C226.406 18.6875 226.094 18.125 225.656 17.6562C225.219 17.1562 224.703 16.9062 224.109 16.9062H212.109C211.234 16.9062 210.484 16.6094 209.859 16.0156C209.266 15.3906 208.969 14.6406 208.969 13.7656C208.969 12.8906 209.281 12.1562 209.906 11.5625C210.5 10.9375 211.234 10.625 212.109 10.625H223.922C226.109 10.6562 227.906 11.2812 229.312 12.5C230.75 13.6875 231.766 15.0469 232.359 16.5781C232.984 18.0781 233.297 19.6406 233.297 21.2656C233.297 22.8281 232.984 24.375 232.359 25.9062C231.734 27.4062 230.719 28.7656 229.312 29.9844C227.906 31.1719 225.828 31.8125 223.078 31.9062H203.391C202.516 31.9062 201.766 31.625 201.141 31.0625C200.516 30.4688 200.188 29.7344 200.156 28.8594V6.54688C200.156 5.67188 200.469 4.95312 201.094 4.39062C201.75 3.79688 202.516 3.5 203.391 3.5C205.266 3.65625 206.297 4.67188 206.484 6.54688ZM241.594 10.1562C242.438 10.1875 243.156 10.5 243.75 11.0938C244.344 11.6562 244.656 12.3594 244.688 13.2031V29.4219C244.5 31.2969 243.469 32.3125 241.594 32.4688C240.719 32.4688 239.953 32.1875 239.297 31.625C238.672 31.0312 238.359 30.2969 238.359 29.4219V13.2031C238.391 12.3281 238.719 11.6094 239.344 11.0469C239.969 10.4531 240.719 10.1562 241.594 10.1562ZM237.656 4.0625C237.656 3.1875 238.031 2.4375 238.781 1.8125C239.531 1.1875 240.438 0.875 241.5 0.875C242.562 0.875 243.469 1.1875 244.219 1.8125C244.969 2.4375 245.344 3.1875 245.344 4.0625C245.344 4.96875 244.969 5.73438 244.219 6.35938C243.469 6.98438 242.562 7.29688 241.5 7.29688C240.438 7.29688 239.531 6.98438 238.781 6.35938C238.031 5.73438 237.656 4.96875 237.656 4.0625ZM253.641 3.5C254.484 3.53125 255.203 3.84375 255.797 4.4375C256.391 5 256.703 5.70312 256.734 6.54688V29.5156C256.547 31.3906 255.516 32.4062 253.641 32.5625C252.766 32.5625 252 32.2812 251.344 31.7188C250.719 31.125 250.406 30.3906 250.406 29.5156V6.54688C250.438 5.67188 250.766 4.95312 251.391 4.39062C252.016 3.79688 252.766 3.5 253.641 3.5ZM259.594 16.5781C260.5 15.1094 262.234 14.0312 264.797 13.3438L276.844 10.1094C277.688 9.85938 278.484 9.9375 279.234 10.3438C280.016 10.7188 280.531 11.3281 280.781 12.1719C281.062 12.9844 281 13.7812 280.594 14.5625C280.219 15.3125 279.609 15.8281 278.766 16.1094L265.922 19.4375C265.016 19.7812 264.578 20.375 264.609 21.2188C264.578 22.0625 265.016 22.6562 265.922 23L278.766 26.3281C279.609 26.6094 280.219 27.1406 280.594 27.9219C281 28.6719 281.062 29.4531 280.781 30.2656C280.531 31.1094 280.016 31.7188 279.234 32.0938C278.484 32.5 277.688 32.5781 276.844 32.3281L264.797 29.0938C262.203 28.375 260.453 27.2812 259.547 25.8125C258.672 24.3438 258.234 22.8125 258.234 21.2188C258.234 19.625 258.688 18.0781 259.594 16.5781ZM295.453 31.9062C292.703 31.8125 290.625 31.1719 289.219 29.9844C287.812 28.7656 286.797 27.4062 286.172 25.9062C285.547 24.375 285.234 22.8281 285.234 21.2656C285.234 19.6406 285.531 18.0781 286.125 16.5781C286.75 15.0469 287.766 13.6875 289.172 12.5C290.609 11.2812 292.422 10.6562 294.609 10.625H312.422C313.297 10.625 314.031 10.9219 314.625 11.5156C315.25 12.0781 315.562 12.7656 315.562 13.5781C315.562 14.4219 315.25 15.1406 314.625 15.7344C314.031 16.2969 313.297 16.5781 312.422 16.5781H294.891C294.203 16.5781 293.594 16.8125 293.062 17.2812C292.562 17.75 292.188 18.3594 291.938 19.1094C291.719 19.8594 291.609 20.5938 291.609 21.3125C291.609 22.0938 291.719 22.8594 291.938 23.6094C292.188 24.3594 292.562 24.9688 293.062 25.4375C293.594 25.875 294.203 26.1094 294.891 26.1406H312.422C313.297 26.1406 314.031 26.4219 314.625 26.9844C315.25 27.5469 315.562 28.2188 315.562 29C315.562 29.8125 315.25 30.5 314.625 31.0625C314.031 31.625 313.297 31.9062 312.422 31.9062H295.453ZM315 21.1719C315 21.7656 314.734 22.2812 314.203 22.7188C313.734 23.125 313.141 23.3281 312.422 23.3281H297.094C296.375 23.3281 295.766 23.125 295.266 22.7188C294.766 22.2812 294.516 21.7656 294.516 21.1719C294.516 20.6094 294.766 20.1094 295.266 19.6719C295.766 19.2656 296.375 19.0625 297.094 19.0625H312.422C313.141 19.0625 313.75 19.2812 314.25 19.7188C314.75 20.125 315 20.6094 315 21.1719Z" fill="#57BA32"/>
</svg>
